<?xml version="1.0" standalone="no"?>
<!DOCTYPE svg PUBLIC "-//W3C//DTD SVG 20010904//EN"
 "http://www.w3.org/TR/2001/REC-SVG-20010904/DTD/svg10.dtd">
<svg version="1.0" xmlns="http://www.w3.org/2000/svg"
 width="260.000000pt" height="260.000000pt" viewBox="0 0 260.000000 260.000000"
 preserveAspectRatio="xMidYMid meet">
<metadata>
Created by potrace 1.14, written by Peter Selinger 2001-2017
</metadata>
<g transform="translate(0.000000,260.000000) scale(0.100000,-0.100000)"
fill="#000000" stroke="none">
<path d="M1095 2520 c-3 -5 -16 -10 -28 -10 -27 0 -11 -17 23 -23 20 -3 17 -5
-10 -6 -59 -2 -207 -48 -287 -88 -65 -33 -92 -55 -187 -157 -92 -98 -122 -124
-176 -149 -60 -29 -73 -31 -172 -32 l-107 0 31 -32 c33 -34 127 -73 177 -73
17 0 31 -4 31 -8 0 -16 -31 -117 -43 -141 -16 -32 -16 -302 0 -356 6 -22 16
-89 21 -149 l9 -109 46 -41 c66 -59 81 -95 74 -175 -15 -168 -19 -191 -35
-189 -9 2 -38 -31 -74 -82 -68 -98 -103 -166 -117 -230 -14 -62 -14 -210 1
-289 l12 -66 7 80 c4 44 14 94 23 110 9 17 16 35 16 41 0 15 31 42 76 64 21
11 40 20 42 20 2 0 1 -80 -3 -179 -8 -200 -1 -251 38 -251 19 0 24 8 34 58 6
32 21 81 34 108 12 27 30 74 39 104 15 49 17 52 23 29 4 -15 23 -55 44 -90 31
-54 37 -76 41 -137 l4 -72 163 0 c122 0 164 3 168 13 3 9 9 9 26 0 37 -23 43
-16 40 52 -1 36 1 68 4 72 4 3 39 -19 79 -49 98 -74 113 -81 164 -75 32 3 59
16 100 48 99 79 89 78 110 4 l19 -65 177 0 178 0 0 65 c0 69 11 98 69 190 27
43 41 48 41 17 0 -8 14 -45 31 -81 21 -43 33 -88 37 -128 5 -61 6 -63 33 -63
45 0 53 42 44 251 -4 99 -5 179 -2 179 18 0 76 -33 96 -54 25 -27 49 -98 60
-181 13 -91 26 -20 26 140 0 147 -1 151 -31 215 -17 36 -57 103 -90 150 -54
77 -59 91 -64 149 -3 36 -10 66 -15 68 -6 2 -19 -13 -30 -33 -10 -19 -38 -47
-61 -60 -31 -18 -46 -35 -55 -62 -24 -76 -84 -176 -140 -232 -47 -48 -179
-140 -200 -140 -3 0 -4 25 -1 55 4 54 4 56 -39 99 -54 53 -116 74 -244 82
-171 12 -346 -37 -397 -109 -17 -23 -19 -38 -15 -78 3 -27 4 -49 2 -49 -2 0
-30 15 -62 34 -128 75 -221 183 -271 315 -17 43 -46 99 -65 124 -38 50 -79
163 -99 272 -10 55 -19 78 -45 106 -33 37 -38 59 -27 117 6 28 10 31 77 43
l71 14 11 45 c7 25 22 69 35 97 22 51 24 54 87 73 79 24 173 26 237 4 71 -24
146 -99 185 -183 19 -42 37 -68 43 -65 7 5 9 49 6 127 -5 116 -4 121 18 144
13 13 28 23 34 23 50 0 173 -128 226 -235 l38 -77 35 7 c20 4 43 11 52 16 30
15 39 155 17 261 -9 44 -9 61 0 70 21 21 51 -21 77 -107 14 -44 25 -97 25
-116 0 -64 9 -79 45 -79 40 0 51 12 60 68 13 81 70 75 81 -8 l7 -50 51 0 c29
0 59 7 70 15 28 21 62 18 80 -6 11 -17 33 -24 98 -34 46 -7 90 -16 99 -20 14
-5 19 5 28 58 14 82 14 241 0 309 -38 179 -207 399 -405 528 -124 81 -351 185
-330 151 10 -16 6 -15 -67 18 -104 47 -244 81 -330 81 -42 0 -79 -4 -82 -10z
m405 -2004 c8 -3 34 -10 58 -16 37 -9 42 -14 42 -39 0 -89 -54 -126 -129 -89
-59 29 -222 29 -281 0 -54 -27 -96 -15 -116 34 -28 68 -18 83 72 105 99 24
295 27 354 5z"/>
<path d="M740 1359 c-101 -10 -140 -26 -174 -72 -18 -25 -21 -42 -20 -120 2
-116 24 -193 74 -255 52 -67 102 -85 217 -79 48 2 105 9 125 14 57 16 130 65
164 111 63 82 95 253 59 321 -33 64 -235 100 -445 80z"/>
<path d="M1686 1353 c-86 -17 -145 -42 -163 -69 -13 -20 -15 -43 -11 -115 5
-76 11 -100 39 -156 61 -121 150 -172 316 -180 78 -4 138 7 194 37 32 17 69
94 84 175 28 143 15 258 -32 283 -59 32 -317 47 -427 25z"/>
</g>
</svg>
