<?xml version="1.0" standalone="no"?>
<!DOCTYPE svg PUBLIC "-//W3C//DTD SVG 20010904//EN"
 "http://www.w3.org/TR/2001/REC-SVG-20010904/DTD/svg10.dtd">
<svg version="1.0" xmlns="http://www.w3.org/2000/svg"
 width="260.000000pt" height="260.000000pt" viewBox="0 0 260.000000 260.000000"
 preserveAspectRatio="xMidYMid meet">
<metadata>
Created by potrace 1.11, written by Peter Selinger 2001-2013
</metadata>
<g transform="translate(0.000000,260.000000) scale(0.100000,-0.100000)"
fill="#000000" stroke="none">
<path d="M1165 2578 c-319 -51 -575 -176 -772 -379 -90 -94 -110 -117 -168
-207 -282 -437 -262 -1028 49 -1442 204 -273 497 -450 836 -506 133 -23 247
-23 380 0 265 44 501 161 686 338 401 385 511 962 279 1465 -155 337 -483 606
-840 692 -214 51 -315 60 -450 39z m355 -373 c64 -33 60 25 60 -917 l0 -858
-29 -32 -29 -33 -152 0 -152 0 -29 33 -29 32 0 650 0 650 -80 -40 c-140 -70
-186 -51 -225 95 -14 50 -25 110 -25 134 0 37 5 49 36 77 19 19 40 34 45 34 6
0 41 17 77 39 37 21 116 64 176 95 l109 56 109 0 c77 0 117 -4 138 -15z"/>
</g>
</svg>
